<svg id="b7276192-6ebf-4b54-9286-376d9cd7d4a6" data-name="Layer 1" xmlns="http://www.w3.org/2000/svg" viewBox="0 0 682.6 682.5">
  <defs>
    <style>
      .bc0ddafb-50a0-45ed-832c-b398787f2412 {
        fill: red;
      }
    </style>
  </defs>
  <g>
    <path class="bc0ddafb-50a0-45ed-832c-b398787f2412" d="M690.8,350.8c-.5,189.3-153.5,341.1-343.1,340.3S7.7,537.5,8.2,348.3,161.6,8.1,350.8,8.6,691.3,161.9,690.8,350.8ZM538.6,329.9c.6,4.7.4,8,1.5,10.9s3.1,5.5,5,5.7c8.7.9,17,1.6,24.5-6.2,4.1-4.4,11.8-7.3,18-7.6,21.8-.9,43.6-1,65.3-.1,11.3.4,12.9-4,11.8-13.7-4.8-43.1-16.5-84.1-38.2-121.7Q543.8,54.1,379.4,34.6c-10.2-1.3-12.8,2-12.6,11.8.7,20.6-.1,41.3.4,62,.2,9.5-1.4,17.3-9.3,23.3s-6.5,15.5-4.7,23.4c.6,2.5,8.3,3.3,12.7,5,.9.4,1.4,1.5,3.7,4-11.5.2-20,2.3-17.7,16,1.6,9.1-2.9,19.9,11,24.5-10.2-.1-10.9,5.5-10.8,12.6.2,39.5.3,79-.1,118.5-.1,8.6,2.4,11.6,11.3,11.5,39.1-.5,78.3-.3,117.4-.1,7.4,0,14.2.4,13.9-11,7.2,11.6,10.3,11.7,31.1,11.2C538.4,346.9,531,335.3,538.6,329.9ZM328.2,159.6c17.7,2.9,21-5.4,18.4-17.4-.8-4-3.1-8.5-6.1-11-6.9-5.9-8.8-12.8-8.6-21.5.5-21.4-.3-42.9.3-64.3.3-9.7-3.4-12.5-12.4-10.8-17.3,3.3-35,5.5-52.1,9.7C142.4,75.3,42.3,194.8,34.2,322.2c-.5,7.9,1.9,10.4,9.7,10.2,21-.3,42.1.4,63.1-.3,10.3-.3,17.7,2.7,25.6,9.7,5,4.3,14.8,4,22.4,4.2,1.4,0,3-7.7,4.6-11.7.5-1.2,1.5-2.2,4.7-6.8-.5,13.8,2.4,21.7,15.5,19.7,9.1-1.3,19.9,3,24.5-10.8-.1,10.4,5.7,10.7,12.7,10.7,39.2-.2,78.3-.4,117.4.1,9.6.1,12.8-2.5,12.7-12.4-.5-38.8-.3-77.5-.1-116.3,0-7.4.1-14-10.9-14.4,17.5-5.9,8.9-19.4,10.7-29.4C349.1,161.4,335.4,168.1,328.2,159.6Zm40.2,377.1a17.6,17.6,0,0,1-1.9,2.4,3.4,3.4,0,0,1-2.1.8c-12.3-1.8-13.8,6-11.9,14.8,1.1,5.3,4.9,10.1,7.2,15.2s6.7,11.5,7,17.3c.8,22.2.7,44.4.2,66.5-.2,9.2,2.3,13.2,11.9,11.1,24.5-5.3,50-7.7,73.2-16.3C576.6,602,647,511.7,664.7,380c1.3-9.6-1-13.2-11.4-12.9-21,.7-42.1-.2-63.1.4-9.2.3-16.6-1.6-22.3-9.2s-15.4-6.6-23.3-4.9c-2.6.6-3.5,8.2-5.3,12.5-.4,1-1.3,1.7-3.9,4.9-.5-11.6-2-21-15.6-18.5-9,1.6-20.3-3.9-24.7,11,0-11.3-6.7-10.9-13.7-10.9-39.1.1-78.3.3-117.5-.1-9.2-.1-12,2.9-11.9,12,.4,38.4.3,76.8.1,115.3,0,7.7-1,15.3,13.7,16.2-20.5,5.7-11.6,19.1-13.5,28.7C349.8,537.7,362.9,531.8,368.4,536.7ZM161.2,371.5c-1-5.8-.8-9.2-2.2-11.6s-4.5-6.5-7.4-7c-8.5-1.6-16.2.1-22.9,7.2-3.7,4-10.6,6.7-16.1,6.9-21.8.8-43.6.3-65.4.3-13.9.1-15.1.5-12.1,14.5,5.7,27.3,9.4,55.8,19.9,81.4,48.8,118.9,138.3,185.9,266.1,201.7,8.2,1,11.3-1.2,11.1-9.8-.5-20.7.3-41.4-.3-62.1-.3-10.5,2.3-18.5,9.9-26.5,4.3-4.6,4.3-14.1,4.2-21.4-.1-1.8-7.9-3.5-12.1-5.4-1.2-.5-2-1.6-3.3-2.7,15.9-6.9,16.7-7.1,16.1-11.1-1.7-10.4,6.8-24.1-10.4-30.4,10-.3,10.7-6.1,10.7-13.4-.3-39.1-.5-78.3.1-117.4.1-10-3.3-12.5-12.8-12.4-38.7.4-77.5-.1-116.3.4-5.3.1-10.5,4.1-16.3,6.6-2.9-12.5-15.3-4.8-24.3-6.9C162.7,349,167,362.8,161.2,371.5Z" transform="translate(-8.2 -8.6)"/>
    <path class="bc0ddafb-50a0-45ed-832c-b398787f2412" d="M198.2,318.6c.6-2.5,1.1-5.1,1.8-7.6l14.2,3.7c-.5,2.3-1.1,4.6-1.5,6.9Zm5.1-18.7,2.7-7.3,13.7,5.5c-.9,2.1-1.7,4.3-2.5,6.6Zm7.4-17.9c1.2-2.3,2.3-4.6,3.6-6.9l12.9,7.1c-1.2,2.1-2.2,4.2-3.3,6.3Zm9.6-16.9,4.4-6.3,11.9,8.7-4,5.7Zm11.6-15.4c1.7-2,3.4-3.9,5.2-5.8L247.8,254l-4.7,5.2Zm13.5-14,5.9-5.1,9.3,11.4-5.3,4.6Zm15.1-12.1c2.1-1.5,4.3-2.9,6.5-4.3l7.8,12.4-5.8,3.9ZM277,213.4l7-3.5,6.2,13.4-6.2,3.1Zm17.7-8,7.3-2.6,4.6,14c-2.3.7-4.5,1.5-6.7,2.4Zm18.6-5.8,7.5-1.6,2.8,14.5-6.9,1.5Zm173.1,122c-.5-2.3-1-4.6-1.6-6.9l14.3-3.7c.6,2.5,1.2,5.1,1.7,7.6Zm-4.6-16.9q-1.2-3.4-2.4-6.6l13.6-5.5c1,2.4,1.9,4.8,2.7,7.3Zm-6.7-16.2c-1-2.1-2.1-4.2-3.2-6.3l12.9-7.1c1.2,2.3,2.4,4.6,3.5,6.9Zm-8.7-15.3-4-5.7,11.9-8.7c1.6,2.1,3,4.2,4.4,6.3Zm-10.5-14c-1.5-1.8-3.1-3.5-4.7-5.2l10.7-10.1c1.8,1.9,3.5,3.8,5.2,5.8Zm-12.2-12.6c-1.7-1.6-3.5-3.1-5.3-4.6l9.4-11.4,5.8,5.1Zm-13.7-11-5.8-3.9,7.9-12.4,6.4,4.3Zm-14.9-9.2-6.3-3.1,6.3-13.4,6.9,3.5Zm-16-7.2-6.6-2.4,4.5-14,7.4,2.6ZM382.3,214c-2.2-.6-4.5-1.1-6.8-1.5l2.7-14.5,7.6,1.6ZM500.8,381c-.5,2.6-1.1,5.1-1.7,7.6l-14.3-3.7c.6-2.2,1.1-4.5,1.6-6.8Zm-5.1,18.8q-1.2,3.6-2.7,7.2l-13.6-5.4,2.4-6.6Zm-7.4,17.9c-1.1,2.3-2.3,4.6-3.5,6.8l-12.9-7.1c1.1-2,2.2-4.1,3.2-6.2Zm-9.6,16.8c-1.4,2.2-2.8,4.3-4.4,6.4l-11.9-8.7c1.4-1.9,2.7-3.8,4-5.8ZM467.1,450c-1.7,2-3.4,3.9-5.2,5.8l-10.7-10.1c1.6-1.7,3.2-3.5,4.7-5.3Zm-13.5,13.9c-1.9,1.8-3.8,3.5-5.8,5.1l-9.4-11.4c1.8-1.4,3.6-3,5.3-4.6Zm-15.1,12.2-6.4,4.3-7.9-12.5c2-1.2,3.9-2.5,5.8-3.9ZM422,486.2c-2.3,1.3-4.6,2.4-6.9,3.5l-6.3-13.3,6.3-3.2Zm-17.6,8.1-7.4,2.5-4.5-14,6.6-2.3ZM385.8,500c-2.5.6-5,1.2-7.6,1.6l-2.7-14.4,6.8-1.5ZM212.7,378.1c.4,2.3,1,4.6,1.5,6.8L200,388.6c-.7-2.5-1.2-5-1.8-7.6Zm4.5,16.9c.8,2.2,1.6,4.4,2.5,6.6L206,407l-2.7-7.2Zm6.7,16.2c1.1,2.1,2.1,4.2,3.3,6.2l-12.9,7.1c-1.3-2.2-2.4-4.5-3.6-6.8Zm8.7,15.2c1.3,2,2.6,3.9,4,5.8l-11.9,8.7c-1.5-2.1-3-4.2-4.4-6.4Zm10.5,14c1.6,1.8,3.1,3.6,4.7,5.3l-10.7,10.1c-1.8-1.9-3.5-3.8-5.2-5.8ZM255.3,453l5.3,4.6L251.3,469c-2-1.6-4-3.3-5.9-5.1ZM269,464c1.9,1.4,3.9,2.7,5.8,3.9L267,480.4c-2.2-1.4-4.4-2.8-6.5-4.3Zm15,9.2,6.2,3.2L284,489.7c-2.4-1.1-4.7-2.2-7-3.5Zm15.9,7.3,6.7,2.3-4.6,14-7.3-2.5Zm16.8,5.2,6.9,1.5-2.8,14.4c-2.5-.4-5-1-7.5-1.6Z" transform="translate(-8.2 -8.6)"/>
  </g>
</svg>
